<?xml version="1.0" encoding="utf-8"?>
<!-- Generator: Adobe Illustrator 19.0.1, SVG Export Plug-In . SVG Version: 6.00 Build 0)  -->
<svg version="1.1" id="Layer_1" xmlns="http://www.w3.org/2000/svg" xmlns:xlink="http://www.w3.org/1999/xlink" x="0px" y="0px"
	 viewBox="354 161.5 380 453" style="enable-background:new 354 161.5 380 453;" xml:space="preserve">
<style type="text/css">
	.st0{fill:#BCBFC1;stroke:#000000;stroke-width:10;stroke-miterlimit:10;}
	.st1{stroke:#000000;stroke-width:10;stroke-miterlimit:10;}
	.st2{fill:#FFFFFF;}
	.st3{fill:#EAEAEA;}
	.st4{fill:#E7E6E6;}
	.st5{fill:#F5F5F5;}
	.st6{fill:#FDFCFC;}
	.st7{fill:#FDFDFC;}
	.st8{fill:#FDFCFB;}
	.st9{fill:#ECECEC;}
	.st10{fill:#E7E7E7;}
	.st11{fill:#E6E6E6;}
	.st12{fill:#EBEAEA;}
	.st13{fill:#EDECEC;}
	.st14{fill:#EFEEEE;}
	.st15{fill:#F3F3F3;}
	.st16{fill:#F1F1F1;}
	.st17{fill:#F5F4F4;}
	.st18{fill:#F1F0F0;}
	.st19{fill:#FAF8F7;}
	.st20{fill:#E2EAE9;}
	.st21{fill:#EEE9ED;}
	.st22{fill:#EEEEEE;}
	.st23{fill:#F4F4F4;}
	.st24{fill:#ECEBEB;}
	.st25{fill:#E6E0E7;}
	.st26{fill:#E0DFDF;}
	.st27{fill:#F3EAE9;}
	.st28{fill:#E3E2E2;}
	.st29{fill:#DDDDDD;}
	.st30{fill:#D8DAD4;}
	.st31{fill:#DDDAD7;}
	.st32{fill:#D4E4E3;}
	.st33{fill:#E1D4DB;}
	.st34{fill:#C6E0DA;}
	.st35{fill:#D2D4C8;}
	.st36{fill:#D0C8CB;}
	.st37{fill:#B3582E;stroke:#000000;stroke-width:10;stroke-miterlimit:10;}
	.st38{fill:#F79453;stroke:#000000;stroke-width:8;stroke-miterlimit:10;}
	.st39{fill:#EFE15E;stroke:#000000;stroke-width:5;stroke-miterlimit:10;}
	.st40{fill:none;stroke:#484743;stroke-width:8;stroke-miterlimit:10;}
</style>
<g id="Layer_1_1_">
	<g>
		<path class="st0" d="M578.9,258.7c6.7,6.7,7.1,19.1,7,36.5c-0.3,32.1-0.2,64.3,0,96.4c0,6.7-0.6,9.4-3.6,9.1
			c-5.6-0.6-11.1-0.4-16.7-0.1c-2.2,0.1-3.1-1.3-3.1-7.1c0.1-34.5,0.1-69,0-103.6c0-15.7-0.8-25.7,5.1-31.3
			C569.4,258.7,577.2,258.7,578.9,258.7z"/>
		<path class="st0" d="M518.9,258.7c7.5,7.7,6.3,14.3,6.3,34.5c0,32.4,0,64.8,0,97.2c0,2.9,0,5.8,0,9.4c-7.7,0-15.1,0-23,0
			c0-2.7,0-5.5,0-8.3c0-32.4,0.3-64.8-0.1-97.2c-0.2-17.7-0.6-29.5,6.3-35.6C509.9,258.7,517.4,258.7,518.9,258.7z"/>
	</g>
	<path class="st1" d="M532.8,551.7c-6.2-1.9-7.3-6.6-7.1-12.1c0.1-3.5,0-6.9,0-10.6c-2.9-0.3-5.7-0.4-8.3-0.8
		c-15.3-2.5-26.3-15.2-26.4-30.8c-0.1-19.6,0-39.2,0-59.3c-1.5,0-3.1,0-4.6,0c-9.9-0.1-17.6-7.7-17.7-17.3
		c-0.1-9.6,7.6-17.4,17.5-17.4c38.9-0.1,77.9-0.1,116.9,0c10.3,0,17.4,7.7,17.3,18.1c-0.1,9.1-7.9,16.4-17.6,16.5
		c-1.5,0-2.9,0-4.8,0c0.2,2.1,0.4,3.8,0.4,5.5c-0.1,19.1,0.2,38.3-0.5,57.3c-0.6,14.9-14.8,27.4-29.9,27.7c-2.7,0.1-5.3,0-8.5,0
		c0,3.8-0.1,7.5,0,11.2c0.2,5.4-0.8,9.9-6.7,11.9c-0.8,0.3-1.3,1.7-1.6,2.7c-3.5,11.6-9.6,21.5-19.4,28.9
		c-16.2,12.2-35.5,11.7-52-1.1c-3.1-2.4-6-5.1-9-7.6c-3.3-2.7-6.5-5.6-10-8c-11.8-8-21.8-8-32.9,1.1c-6.9,5.7-12.8,12.7-19,19.2
		c-4.4,4.6-8.5,9.5-13.2,13.8c-4.7,4.3-11.5,3-14.9-2.4c-2.1-3.2-1.9-7,0.6-9.6c9.4-10.1,18.8-20.2,28.4-30.1
		c7.9-8.2,17.3-13.9,28.7-15.8c13.7-2.2,25.6,1.8,36,10.8c5.3,4.6,10.6,9.4,16.3,13.5C510,580.9,527.6,569.2,532.8,551.7z"/>
	<path class="st2" d="M610,1002.6c1.3,1.7,3.4,0.9,5.1,1.4c2.8,0.9,4.1,2.2,4,5.3c-0.1,2.9-1.1,4.4-4.1,4.3c-0.2,0-0.4,0-0.5,0.1
		c-3.3,4.3-8.1,7.4-11,11.6c-1.9,2.9-2.9,4.6-6.2,4.3c-4-0.4-5.2,1.6-5.3,5.3c-0.1,2.8,0.9,3.9,3.8,3.8c10.1-0.5,20.2,1.7,30.3,1
		c1.3,0,2.7,0,4,0c0.3,0.2,0.4,0.4,0.3,0.7c-0.1,0.2-0.2,0.3-0.3,0.3c-26,0-52,0-78,0c-0.3-0.6-0.2-1.1,0.3-1.5
		c1-0.7,2.2-0.8,3.3-0.9c3.8-0.2,7.6-0.2,11.5-0.1c3.8,0.1,5.4-1.5,5.4-5.3c-0.1-6.6-0.1-13.3,0-19.9c0-2.2,0.1-4.3,1-6.4
		c0.6-1.5,1.5-2.7,3.3-2.5c1.7,0.1,2.6,1.3,3.1,2.8c0.5,1.6,0.5,3.3,0.5,4.9c0,6.1,0,12.3,0,18.4c0,1.7,0,3.4,0.7,4.9
		c0.7,1.4,1.9,1.8,3.3,1.5c1.4-0.3,1.6-1.5,1.6-2.7c0-1.2-0.3-2.3-0.8-3.4c-2.7-5.7-1.8-11.7-1.7-17.7c0-1.9,0.7-3.8,2.7-4.4
		c5.2-1.9,9.6-6,15.5-6c1.3,0,2.6-0.4,3.9-0.8C607.3,1001.5,608.8,1001.4,610,1002.6z"/>
	<path class="st3" d="M754,1016.6c0.7-0.1,1.5,0.1,1.9-0.3c0.8-0.6,0-1.3-0.5-1.4c-1.4-0.3-2.9-0.4-5.7-0.7
		c8.9-1.6,10.1-9.6,15.4-13.6c1,1.3,3.7,1.4,3,4c-0.8,0.5-1.5,1.1-2.3,1.6c1-0.5,1.8-1.2,2.7-2c2.5-0.6,4.3,0.3,5.6,2.4
		c0,11,0,22,0,33c-6.1,1.1-12.2,0.2-18.3,0.5c-4.7-1.4-2.2-4.1-0.5-5.7c3.1-2.9,4.7-6.3,4.8-10.5c-0.3-2.3-1.5-3.9-3.7-4.8
		C755.3,1018.6,753.6,1018.6,754,1016.6z"/>
	<path class="st2" d="M754,1039.6c6.7,0,13.3,0,20,0c-0.9,2.1-2.7,0.9-4,0.9c-46.7,0.1-93.3,0.1-140,0.1c0-0.3,0-0.7,0-1
		c14,0,28,0,42,0c9,0,18,0,27,0c7.7,0,15.3,0,23,0c4,0,8,0,12,0C740.7,1037.1,747.3,1037.1,754,1039.6z"/>
	<path class="st3" d="M770,1000.6c1.2-3.2-1.5-0.7-2.3-1.4c-1.5-1.4-3.6-0.2-5.2,1c-0.7-2.3-0.1-4.2,1.7-3.4c4.5,2,7-0.9,9.9-3.2
		c0,3.7,0,7.3,0,11C771.4,1004.6,770.1,1003.1,770,1000.6z"/>
	<path class="st4" d="M770,1000.6c1.3,1.3,2.7,2.7,4,4c0,0.7,0,1.3,0,2c-2-0.7-4-1.3-6-2c-0.4-1.8-3.1-1.8-3-4
		C766.7,1000.6,768.3,1000.6,770,1000.6z"/>
	<path class="st5" d="M644,1020.6c-3.7-4.4-0.8-9.7-1.7-14.5c-0.4-2,2.8-2,4.1-3.4c3.3-3.5,5.9-8.4,11.6-9.1c0.1,1.4,1,2.1,2.3,2
		c7.9-0.9,9.4,7.9,15.3,10.3c0.9,0.4,0.7,3.5-0.1,5.2c-0.8,1.8-2.3,0.7-3.5,0.6c-1.8-0.2-3.9,0.5-5.7-0.7c1.3-2.1,3.3-0.7,4.9-1.7
		c-1.5-0.7-3-1.3-5.6-2.5c3.2,0,5.2,0,7.1,0c-2.9-1.6-6.9-1.1-7.3-6.1c-0.1-1.5-2.9,0.6-4.5,0c-1.4,1.7-3.5,1.8-5.4,2.3
		c-7,1.7-10.4,7.7-7.8,14.4c1,2.7,4,3.4,6.2,3.1c1.7-0.2,1-1.9-0.5-2.7c-3.3-1.9-2.2-3.3,0.6-4c4-1,5.6-2.8,2.9-6.6
		c-0.9-1.2-1.1-2.6,0.3-3.5c1.8-1.1,3.5-0.5,4.7,1.2c0.8,5.1,2.4,10.2-2.7,14.3c-1.6,1.3-2.2,3.2,0.9,3.8c1.5,0.3,2,1.1,1.4,2.5
		c-1.6,3.7-9.5,4.9-12,1.7C647.9,1024.6,646.2,1022.4,644,1020.6z"/>
	<path class="st6" d="M662,1004.6c-1.6,0.3-3.3-2.1-4.5-0.1c-1.3,2,1.6,1.9,2.3,3.1c1.3,2.5-0.2,6.1-3,6.9c-1.3,0.4-2.9-0.2-4.4,1
		c1.2,1.9,3.2,0.7,4.7,1.6c0,0.3,0,1-0.2,1.1c-2,1.1,0.7,5.3-2.6,4.8c-5.8-0.8-7-4.2-7.9-8.6c-1.4-7.1,2.2-10,7.4-12.3
		c2.2-1,4.8-0.9,7.3-1.3C664.2,1003.3,664.2,1003.3,662,1004.6z"/>
	<path class="st7" d="M659,989.6c1.8-1,1.8-1,7-1C663.9,990.5,661.3,989.2,659,989.6z"/>
	<path class="st8" d="M555,1039.6c0-4.1-0.1-8.2,0-12.3c0.1-4.3-0.5-7.8-6.5-6.6c0.6-2.4,1-4.3,1.4-6.1c1.3-6.1,6.3-11.1,12-12
		c3.6-0.6,7.1,2,9.9,1.5c3.3-0.7,6.4-1,9.6-0.4c8.2,1.4,16.2-2.4,24.5-1c-0.7,0.9-1.7,1.1-2.7,1c-6.4-0.3-10.8,5-16.8,6.1
		c-0.9,0.2-1.5,0.9-1.4,1.8c0.5,5.9-1.7,11.9,1.5,17.6c0.6,1,0.9,2.2,1.1,3.3c0.3,1.9,1.1,4.2-0.5,5.7c-1.5,1.3-3.9,0.9-5.8,0.4
		c-2.3-0.7-2.4-2.9-2.4-5c0-7.2,0.1-14.3-0.1-21.5c-0.1-2.5,1.7-6.9-2.4-6.8c-2.8,0.1-2.5,4.4-2.5,7.2c0,7.2-0.3,14.3,0.1,21.5
		c0.2,4.8-1.6,6.2-6.1,5.9C563.7,1039.4,559.3,1039.6,555,1039.6z"/>
	<path class="st9" d="M754,1039.6c-6.7,0-13.3,0-20,0c1.5-5.8,7.3-7.9,10.7-12c0.9-1.2,1.4,0.8,2.3,1c1.3-1.2,2.5-0.3,3.5,0.3
		c1.7,0.9,2.7,0.1,3.8-1c2.4-0.7,2.7-3.2,4-4.8c1-0.3,1.9-0.3,2.6,0.5c0.6,4.3-0.5,7.8-4,10.6C755.3,1035.5,753.6,1037,754,1039.6z"
		/>
	<path class="st10" d="M755,1028.6c-2.7,5.8-5.3-0.3-8,0c0-0.7,0-1.3,0-2c0-7,0-7,7-7c0.1,0.2,0.1,0.4,0.2,0.6
		c-0.5,1.4-1.9,1.8-2.9,2.6c-1.6,1.9-0.8,2.8,1.2,3.5C753.6,1026.8,755.3,1026.6,755,1028.6z"/>
	<path class="st11" d="M761,1023.6c-1,0-2,0-3,0c-1.4,2.3-3.1,2.3-5,0.6c-0.8-1.6,0.2-2.4,1.4-3.1c1.7-1-0.7-0.9-0.4-1.5l0,0
		c-1.4-0.8-2.7-1.5-4.3-2.4c1.5-1.1,3-0.4,4.3-0.6C756.7,1018.6,761.5,1018.5,761,1023.6z"/>
	<path class="st12" d="M434,1039.6c-9.3,0-18.5-0.1-27.8,0.1c-3.2,0.1-4.4-1-4.3-4.2c0.2-7.6,0.1-15.2,0.1-22.8
		c3.9-2,8.4-2.4,11.7,0c3.3,2.4,2.4,7.7,4.6,11.2c-1.5-2.9-1.4-6-1.3-9.1c0-1.5,0.7-3.1,2.8-1.5c1.4,1,1.4-2.3,2.9-1
		c1.7,5.6,7.2,4.3,11,6.2c0.2,2.7-2.2,1.4-3.5,2.6c1.8-0.5,3.5-1.6,4.5,0.7c0.3,0.9,0.3,1.9,0.1,2.8c-0.7,2.5-0.5,5.8-4.7,5.4
		c-1.1-0.1-1.7,0.9-1.7,2c0,1.7,0.8,2.7,2.4,3.3C432.9,1036,436,1036,434,1039.6z"/>
	<path class="st13" d="M423,1012.6c-1.8-1.2-1.8,4.5-4.3,1c-0.3-0.4-0.9,0.4-0.7,0.7c1.3,2.7-1.3,6.5,2.3,8.5
		c0.9,0.5,1.6,1.2,1.1,2.4c-0.4,0.8-1.1,1.2-2,1.2c-1,0.1-2-0.1-2.3-1.3c-0.3-1.1-0.3-2.3-0.7-3.4c-3.8-9.2-3.8-9.2-14.4-9.2
		c0-7.3,0-14.7,0-22c1-0.6,2.1-0.4,2.8,0.3c3.3,3,6.9,5,11.5,4.8c0.6,0,0.1-0.3,0.4,0.1c4,6.4,8.2,1.5,12.3,0.2
		c1.6-0.5,3.2-2,5.1-0.4c2.7,0.4,5.5-1,8,1c-0.8,1-2,1.1-3.2,1c-0.4,0-0.7-0.3-1.1-0.4c0.6,7.7-4.2,2.7-6.8,2.9
		c-0.9,0-1.8,0.1-2.6,0c1.3,0.3,4.4,0.5,2,2.1c-4,2.6-5,6.1-6.1,10.1C424.2,1012.7,423.5,1012.8,423,1012.6z"/>
	<path class="st14" d="M434,1039.6c0.1-2-0.7-3.1-2.9-3c-3.8,0.2-4-2.6-4.2-5.4c-0.2-3.5,2-3,4.2-2.6c3.6,0.6,0.3-3.7,2.8-4
		c1-3.4,3.6-5.3,6.1-7.5c1.8-1.6,3.7-3.2,4.3-5.8c-0.1-0.7,0-1.3,0.2-1.9c0.2-0.4,0.5-0.8,0.8-1.3c0.7-1.1,1.4-2.5,3-1.9
		c1.6,0.6,1.2,2.1,1.1,3.4c0,0.7-0.1,1.3-0.6,1.9c-0.1,2.9-3.1,3.7-4,6c-0.1,1.1-0.6,1.9-1.3,2.6c-3.4,3-3.9,5.6,0.8,7.7
		c0.6,0.3,1.2,0.9,1.2,1.5c0.3,4.1,2.4,6,6.5,6.6c1.7,0.2,2,2,0.8,3.5C446.7,1039.6,440.3,1039.6,434,1039.6z"/>
	<path class="st15" d="M453,1039.6c0.2-2.5-1.1-3.1-3.3-3c-1.6,0.1-4.2,0.2-4.1-1.6c0.2-4.5-2.4-6.5-5.5-8.7
		c-1.7-1.2-2.5-2.8,0.4-4.3c1.7-0.9,2.6-3.3,4.6-4.4c2.2,0.4,4.5,0.3,5.2,3.3c0.4,2,1.9,2.8,4.1,2.8c3.3-0.1,5,1.8,4.7,5
		c-0.3,3.9,0.8,7.4,2.1,11C458.3,1039.6,455.7,1039.6,453,1039.6z"/>
	<path class="st15" d="M463,1039.6c0.1-1.2,0.4-2.5,1.7-2.6c1.7-0.1,1.1,1.5,1.3,2.6C465,1039.6,464,1039.6,463,1039.6z"/>
	<path class="st4" d="M768,1004.6c-1.6,1.4-2,5.7-5.8,2.1C763.9,1005.1,766.2,1005.4,768,1004.6z"/>
	<path class="st16" d="M764.1,1015.6c-0.3-0.2-1-0.5-1.3-1c-0.3-0.6,0.3-0.9,0.8-0.8c0.6,0.2,1.3,0.5,1.6,0.9
		C765.5,1015.3,764.9,1015.5,764.1,1015.6z"/>
	<path class="st17" d="M654.6,1003.6c-0.8,3.2-3.8,5.2-2,8.4c0.3,0.5-0.1,1.3-1,1.3c-0.7,0-1.1-0.4-1.5-1
		C648.2,1009.4,649.8,1005.9,654.6,1003.6z"/>
	<path class="st3" d="M753,1023.6c1.7,1.1,3.3,1.1,5,0c1.2,3-0.7,4.1-3,5c-0.8-1.4-2.4-0.7-3.5-1.3c-0.9-0.4-2.6,0.2-2.5-1.6
		c0.1-1.6-0.8-3.8,2-4.1C751.8,1022.1,752.5,1022.8,753,1023.6z"/>
	<path class="st18" d="M753,1023.6c-1.3,0-2-0.7-2-2c1-0.7,2-1.3,3-2c1.2,0.1,2.2,0.4,3.3,1.6C755.7,1021.8,753.6,1021.6,753,1023.6
		z"/>
	<path class="st19" d="M538,1007.4c-2.4-0.7-4.7,2.2-7.9-0.2C533.2,1005.5,535.6,1004.5,538,1007.4z"/>
	<path class="st18" d="M449,1011.6c-1.1-1.4-0.5-3-0.3-4.4c-2.9-1-1.5,3-3.7,2.4c-0.8,0.8-1.6,1.5-2.6,2.1c-0.4,0.2-0.9,0.2-1.3,0.2
		c-1.9-0.7-2.6-2.3-3.2-4c-0.7-1.9-1.5-3.7-4.1-3.4c-0.9,0.1-1.7,0.2-2.6,0.3c-2.3,0.5-5.2,0.7-2.6,4.2c0.5,1.1,0.5,2.1,0,3.2
		c-0.5,0.9-1.2,0.5-1.9,0.2c0.2,0.7,0.9,0.6,1.4,0.9c0.3,0.3,0.5,0.7,0.7,1c1.2,2.2,5.4-0.1,5.5,3.7c-0.1,0.2-0.3,0.4-0.4,0.6
		c-2.1-0.1-4.2-0.4-6.3-0.4c-4.2-0.1-5-2.2-4.7-5.6c0.3-0.6,1-1.2,0.9-1.7c-0.6-5,1.4-8.2,6.5-9.1c-0.7-2-2.7-0.4-3.5-2
		c2.8,0.3,5.7-2.4,8.4,0.6c0.5,0.5,2.1-0.1,2-0.8c-1-5.4,3.2-2,4.8-2.9c3.9,2.5,5.6,6.9,8.9,10C452.5,1008,452.8,1011.1,449,1011.6z
		"/>
	<path class="st17" d="M445,1011.6c2.2,0.4,1.2,1,0.2,2c-3.8,3.6-7.5,7.4-11.2,11c0-1,0-2,0-3c0.6-1,0.3-2.2,0.6-3.3
		c1.4-3.4,3.3-6.3,7.4-6.7l0,0C443,1010.8,444,1010.8,445,1011.6z"/>
	<path class="st18" d="M435,1018.6c0,1.1,0.2,2.3-1,3c-2.4-0.8-5.3,1.7-7.5-1.1c2.1-2.2,5.5,0.4,7.5-1.9h0
		C434.3,1018.1,434.7,1018.1,435,1018.6z"/>
	<path class="st9" d="M445,1011.6c-1,0-2,0-3,0c0.1-2,1.5-2,3-2C445,1010.3,445,1010.9,445,1011.6z"/>
	<path class="st20" d="M588,996.6c-1.3,0-2-0.7-2-2c-1.1-2,0.3-2.5,1.7-3c1.4-0.3,2.8-0.2,4.1,0.6c1.9,2.5-0.6,3.2-1.8,4.5
		C589.3,996.6,588.7,996.6,588,996.6z"/>
	<path class="st21" d="M590,996.6c0.7-1.3,1.3-2.7,2-4c1.2-0.8,2-0.4,2.6,0.8c0.2,0.8,0,1.6-0.6,2.2c0,0.3,0,0.7,0,1
		C592.7,996.6,591.3,996.6,590,996.6z"/>
	<path class="st22" d="M553,996.6c0.7,0.3,1.3,0.7,2,1c0.1,2.5-3.6,0.7-3.4,3.5C550.8,999,551.8,997.7,553,996.6z"/>
	<path class="st23" d="M428,1014.6c0-0.3,0-0.7,0-1c0.1-0.3,0.1-0.7,0-1c0-1.3,0-2.7,0-4c-1.6-3.2,1.7-3.5,3-5c1,0,2,0,3,0
		c2.3,0.8,3,2.9,3.9,4.9c1.4,3.4,0.3,5.9-3.2,6.8C432.5,1015.8,430.1,1016.2,428,1014.6z"/>
	<path class="st9" d="M428,1014.6c1.3,0,2.6,0.1,4,0c5.2-0.3,6.5-2.6,4.1-7c-0.7-1.3-1.3-2.6-2-4c3.5-1.5,4.2,1.6,4.8,3.5
		c0.6,2,1.3,3.6,3.2,4.5c-3,1.7-5,4.3-7,7c-0.3,0-0.7,0-1,0c-0.4-2.7-2.5-1.9-4.1-2C428.4,1016.6,427.1,1016.7,428,1014.6z"/>
	<path class="st24" d="M431,1003.6c0,2.3-3.4,2.5-3,5c-2.1,0.9-2.3-0.4-1.8-1.8C426.8,1004.4,428.6,1003.5,431,1003.6z"/>
	<path class="st24" d="M428,1012.6c0.7,0.3,0.7,0.7,0,1c-0.9-0.2-1.9,0.9-2.6,0c-0.2-0.3,0.5-1.4,0.8-2.1
		C426.8,1011.9,427.4,1012.2,428,1012.6z"/>
	<path class="st13" d="M441.8,999.5c-0.5,0.4-0.8,0.8-1.1,0.9c-0.4,0-1.1-0.2-1.2-0.4c-0.3-0.7,0.3-1.2,0.9-1.1
		C440.9,998.8,441.2,999.2,441.8,999.5z"/>
	<path class="st25" d="M580,994.6c0-0.7,0-1.3,0-2c-0.6-0.6-0.6-1.4-0.2-2.1c0.6-0.6,1.3-0.8,2-1c1.8-0.2,3.5-0.2,5.2,0.2
		c0.5,0.2,0.9,0.4,1.2,0.8c0.3,0.7,0.3,1.4-0.3,2c-1.3,0-2,0.7-2,2c-0.7,0-1.3,0-2,0C582.7,995.6,581.3,995.8,580,994.6z"/>
	<path class="st26" d="M560,988.6c0.8,0.4,1,1.2,1,2c-0.2,1.1-0.2,2.6-1.8,2.3c-1.1-0.2-2-1.3-2-2.5
		C557.1,988.3,558.8,988.7,560,988.6z"/>
	<path class="st27" d="M580,994.6c1.3,0,2.7,0,4,0c-2,3.1-4,3.1-6,0C578.7,994.6,579.3,994.6,580,994.6z"/>
	<path class="st28" d="M588,992.6c0-0.7,0-1.3,0-2c1.4-1.5,3.3-1.2,5.1-1.3c1.6-0.2,3.8,0.4,4.2-1.6c0.4-2.1-2.4-1.7-3.3-3.1
		c4.4-3,8.2,0,11.7,1.8c2.5,1.3,1,3.1-1.3,3.5c-3.7,0.6-7.1,2.1-10.5,3.8c-0.4-0.8-1.2-1-2-1C590.7,992.6,589.3,992.6,588,992.6z"/>
	<path class="st29" d="M594,984.6c0.6,0,1.3,0,1.9,0c1.8,0.1,3.3,1,3.6,2.7c0.4,2.1-1.8,2.4-3.2,3c-0.7,0.3-1.6,0.2-2.4,0.3
		c-1.3-1.7-1.5-3.3,0-5C594,985.3,594,984.9,594,984.6z"/>
	<path class="st30" d="M594,985.6c0,1.7,0,3.3,0,5c-2,0-4,0-6,0l0,0c-0.5-0.5-0.6-1.2-0.4-1.9c0.8-1.4,2.3-1.5,3.5-2.1
		c0.2-0.5,0.2-1,0.2-1.5c0.1-0.3,0.2-0.6,0.5-0.9C592.5,984.8,593.3,985.2,594,985.6z"/>
	<path class="st31" d="M578,989.6c-1.3-0.1-3,0.3-3.3-1.4c-0.2-1.5,1.5-1.2,2.4-1.7c1.6-0.8,2.7-2.6,4.9-1.9c1-0.3,1.9-0.6,2.9-0.9
		c0.2,0.2,0.2,0.4,0.2,0.6c0.6,1,0.1,1.7-0.5,2.5c-1.2,1.1-1.5,2.7-2.6,3.8c-0.7,0-1.3,0-2,0C579.3,990.5,578.8,989.7,578,989.6z"/>
	<path class="st32" d="M578,989.6c1.6-1.5,1.8-0.3,2,1c0,0.7,0,1.3,0,2c-0.8,0-1.6-0.2-2-1C578,990.9,578,990.3,578,989.6z"/>
	<path class="st33" d="M582,990.6c0.2-1.6-0.6-3.7,2-4c0.2,0.1,0.3,0.2,0.5,0.3c0.8,0.4,1.9,0.4,2.7,0.9c0.3,0.2,0.6,0.5,0.8,0.9
		c0,0.7,0,1.3,0,2C586,990.6,584,990.6,582,990.6z"/>
	<path class="st34" d="M584,986.6c0.4-0.8,0.7-1.5,1.1-2.3c2.2,0.7,4.4,0.2,6.7,0.1c0.1,0.8,0.1,1.5,0.2,2.3
		c-1.5,0.8-3.2,0.9-4.8,1.3C586.3,987.2,584.9,987.5,584,986.6L584,986.6z"/>
	<path class="st35" d="M587,987.6c1.5-0.9,3.2-1.1,5-1c0.7,0.6,1.4,1.2-0.2,1.4c-1.3,0.2-2.5,0.4-3.8,0.7c-0.3,0-0.7,0-1,0
		c-0.3-0.2-0.4-0.4-0.3-0.7C586.8,987.7,586.9,987.6,587,987.6z"/>
	<path class="st36" d="M587,987.6c0,0.3,0,0.7,0,1c0-2.1-4.2,1.9-3-2C585.1,986.6,586.3,986.4,587,987.6z"/>
	<path class="st37" d="M618.8,382.8c11,0.4,45,0.7,56,0.2c12.3-0.5,22.6-5.7,29.7-16c4.2-6.1,4-6.1,10.8-2.8c3.4,1.7,6.4-0.2,8-2.8
		c1.3-2.2,2-5.9-1.1-7.5c-5.4-2.8-4.8-7.3-4.5-12c0.1-1.5,0.7-2.5,2.2-2.9c3.5-0.9,3.9-3.6,4.1-6.5c0.2-3.2-1.9-4.9-4.3-6.1
		c-2.6-1.4-4.9-0.2-6.6,1.8c-2.7,3-4.5,1.7-6-1c-4.2-7.4-10.4-12.5-18.1-16.1c-6.4-3.1-13.3-2.8-20.1-3c-13.7-0.3-27.3-0.1-41-0.1
		c-1.4,0-3.2-0.8-4,1c-0.9,1.9,0.7,3.1,1.8,4.2c6.2,6.2,12.3,12.6,18.9,18.5c5.1,4.6,0,6.3-2,8.9c-2.5,3.3-4.3,1.4-6.4-0.7
		c-9.9-10.1-19.9-20-29.8-30.1c-1.2-1.3-2.6-2-4.4-2c-4.7,0-9.3,0-14,0c-2,0-4.3,0.5-5,2.5c-0.5,1.6,1.8,2.4,2.8,3.4
		c6.1,6.3,12.3,12.5,18.6,18.6c4.6,4.4-0.6,5.7-2.3,8.1c-2,2.7-4,2.5-6.5,0c-9.7-9.7-18.7-20.1-29.2-29c-4.7-4-10.3-3.4-15.6-3.8
		c-1.7-0.1-3.6,0.1-5.4,0.2c-1.2,0.1-3-0.6-3.4,1.1c-0.3,1.2,0.9,2.2,1.9,3.2c6.6,6.6,12.5,13.8,19.7,19.9c3.4,2.9,1.9,5-0.6,7.3
		c-2.3,2-4.1,4.8-7.7,1.1c-9.7-10.1-19.7-19.8-29.5-29.8c-1.9-1.9-3.9-2.8-6.6-2.7c-6.4,0.1-12.9,0-20.6,0c4,4.2,8.1,6.5,11,10.2
		c5.7,5.5,8.6,9.8,13.7,14c1.6,1.3,4.3,3.4,0.8,5.5c-2.9,1.7-4.4,8.3-9.8,2.7c-9.8-10.2-20-20.1-29.9-30.2c-1.8-1.9-3.9-2.2-6.3-2.3
		c-4.4-0.1-6.7-0.2-13.1,0.2c-1.3,0.1-2.6,0.4-3.3,1.7c-0.6,1.3,0.4,2.1,1.2,2.9c6.1,6.1,12.3,12.1,18.3,18.3
		c1.4,1.4,4.1,2.7,3.1,5.2c-1.1,2.8-3.6,4.8-6.2,6.3c-1.5,0.8-2.7-0.7-3.8-1.7c-10.1-10.1-20.1-20.1-30.2-30.2
		c-1.1-1.1-1.8-2.5-3.5-2.4c-11.8,0.5-23.7-1.6-35.3,1.1c-9.9,2.3-18.4,7.1-23.5,16.4c-2.2,4-4.6,4.9-7.8,2
		c-2.7-2.3-4.9-1.9-7.5-0.1c-2.8,1.9-3.1,4.5-2.6,7.5c0.2,1.4,0.9,2.3,2.2,3.1c5.6,3.2,5.8,12.2,0.2,15.4c-3.6,2-3.1,5-2.1,7.7
		c1.1,3.2,5.1,4.8,7.3,3.5c7.2-4.4,9.6-0.7,13.4,5.1c3.5,5.3,9.5,9.1,16,11.2c5.9,1.9,11.9,2.5,18.1,2.4c27.8-0.3,55.6-0.1,83.5-0.1
		c38,0,79,0,116.9-0.2"/>
	<path class="st38" d="M553.6,246.6c0,0-10.5-24.2-4.4-30.3c9-9.1,6.9-16.4,5.3-22.8c-1.5-5.9-3.4-10.9-3.4-10.9s-1.6,8.9-8.9,16
		C528.8,211.7,524.7,234.8,553.6,246.6z"/>
	<ellipse class="st39" cx="513.6" cy="284.2" rx="2.8" ry="6"/>
	<ellipse class="st39" cx="574" cy="284.2" rx="2.8" ry="6"/>
	<line class="st40" x1="495" y1="457.6" x2="593" y2="457.6"/>
	<line class="st40" x1="495" y1="479.6" x2="593" y2="479.6"/>
	<line class="st40" x1="495" y1="500.6" x2="593" y2="500.6"/>
</g>
<g id="Layer_2">
</g>
</svg>
